<?xml version="1.0" standalone="no"?>
<!DOCTYPE svg PUBLIC "-//W3C//DTD SVG 20010904//EN"
 "http://www.w3.org/TR/2001/REC-SVG-20010904/DTD/svg10.dtd">
<svg version="1.0" xmlns="http://www.w3.org/2000/svg"
 width="1024.000000pt" height="1024.000000pt" viewBox="0 0 1024.000000 1024.000000"
 preserveAspectRatio="xMidYMid meet">

<g transform="translate(0.000000,1024.000000) scale(0.100000,-0.100000)"
fill="#000000" stroke="none">
<path d="M3406 7829 c-232 -30 -418 -113 -606 -268 -149 -124 -286 -325 -344
-506 -58 -182 -56 -109 -56 -1924 0 -1808 -1 -1764 55 -1936 40 -120 140 -307
199 -372 156 -169 271 -254 451 -334 38 -17 109 -39 194 -62 l86 -22 1735 0
1735 0 85 23 c203 54 340 120 471 228 228 186 369 429 414 714 13 82 15 324
15 1750 0 1802 2 1738 -56 1930 -99 324 -385 613 -718 725 -187 63 -60 59
-1906 61 -945 1 -1715 -2 -1754 -7z m2079 -727 l0 -124 -365 1 -365 1 -5 117
c-3 65 -2 120 2 123 3 3 170 5 370 5 l363 0 0 -123z m-798 17 c0 -41 2 -190 2
-331 l1 -258 430 0 430 0 0 335 c0 255 3 335 12 335 7 0 63 -52 125 -116 l114
-115 -3 -219 -3 -218 165 -4 c161 -3 166 -4 214 -32 82 -48 89 -71 136 -496
22 -201 45 -399 50 -440 5 -41 19 -158 30 -260 11 -102 35 -326 55 -497 19
-172 35 -339 35 -370 -1 -148 -113 -241 -280 -231 l-55 3 -6 51 c-14 114 -95
223 -206 280 -53 26 -67 29 -158 29 -94 0 -104 -2 -160 -32 -72 -39 -81 -47
-121 -98 -49 -62 -64 -100 -71 -170 l-6 -65 -296 2 -296 3 -7 58 c-8 66 -29
115 -72 172 -38 50 -47 56 -120 96 -49 27 -73 32 -145 36 -71 4 -95 2 -138
-16 -56 -22 -137 -76 -167 -112 -32 -38 -65 -122 -72 -183 l-7 -58 -91 4 c-78
3 -99 8 -139 31 -26 16 -60 47 -75 69 -35 54 -40 138 -18 331 26 231 45 403
81 742 19 176 42 374 50 440 25 195 34 272 49 417 15 143 28 184 71 231 52 55
76 62 253 65 l162 4 0 221 0 222 112 112 c62 62 117 112 123 110 5 -2 11 -37
12 -78z m-101 -2705 c67 -41 105 -100 111 -172 7 -75 -9 -129 -53 -180 -53
-62 -105 -86 -184 -86 -211 0 -317 246 -172 398 56 58 104 77 183 74 53 -3 76
-10 115 -34z m1268 25 c21 -6 60 -30 86 -55 37 -35 51 -57 64 -102 20 -72 20
-90 0 -148 -56 -167 -278 -212 -400 -82 -49 52 -64 90 -64 163 0 46 6 78 20
105 20 40 89 102 131 119 33 13 115 13 163 0z m-1694 -800 c73 -11 114 -32
142 -70 23 -30 33 -93 24 -142 -7 -35 -57 -97 -78 -97 -7 0 3 -8 22 -19 47
-24 77 -71 85 -130 12 -90 -42 -169 -140 -202 -28 -10 -92 -14 -215 -14 l-175
0 -3 330 c-1 181 0 336 3 342 6 16 240 18 335 2z m1595 -334 l0 -340 -70 0
-70 0 -5 333 c-3 182 -3 337 -2 342 3 7 32 10 75 8 l72 -3 0 -340z m655 280
l0 -65 -105 0 -105 0 0 -279 0 -279 -72 2 -73 1 -3 277 -2 277 -103 3 -102 3
-3 49 c-2 27 -1 55 2 62 4 11 57 14 286 14 l280 0 0 -65z m-1534 -115 l54 0
-2 -252 -3 -253 -65 0 c-64 0 -65 1 -68 28 l-3 28 -34 -30 c-40 -34 -85 -46
-156 -39 -57 6 -94 29 -124 79 -18 31 -20 54 -23 237 l-3 202 75 0 76 0 0
-171 c0 -94 4 -179 10 -189 14 -27 62 -40 105 -29 58 16 66 45 64 224 0 85 2
159 6 165 4 6 14 9 22 6 8 -3 39 -6 69 -6z m277 0 c2 -3 23 -66 47 -140 70
-219 62 -213 105 -74 68 217 69 219 101 218 16 -1 48 -2 72 -3 33 -1 42 -5 42
-19 0 -10 -25 -83 -56 -162 -31 -80 -69 -183 -86 -230 -95 -269 -139 -315
-296 -311 l-43 1 3 62 3 63 41 -3 c36 -3 45 1 68 28 39 47 42 31 -76 340 -22
58 -44 114 -48 125 -18 42 -31 95 -27 102 5 8 144 10 150 3z"/>
<path d="M4423 6208 c-62 -68 -59 -169 7 -242 40 -44 86 -60 155 -54 141 12
217 183 127 286 -10 12 -21 22 -24 22 -2 0 -5 -26 -6 -57 -1 -32 -7 -70 -12
-84 -22 -53 -113 -79 -164 -45 -42 27 -56 57 -57 129 -1 37 -2 67 -4 67 -1 0
-11 -10 -22 -22z"/>
<path d="M5533 6212 c-20 -12 -43 -78 -43 -120 0 -154 179 -239 300 -143 49
39 65 76 65 148 0 47 -5 68 -21 89 -23 31 -46 43 -43 23 1 -8 1 -38 0 -67 -1
-47 -5 -58 -35 -88 -29 -29 -41 -34 -80 -34 -80 0 -130 68 -122 168 2 33 -1
37 -21 24z"/>
<path d="M3970 3450 l0 -70 80 0 c73 0 83 2 106 26 20 19 24 31 20 52 -12 48
-40 62 -127 62 l-79 0 0 -70z"/>
<path d="M3977 3254 c-4 -4 -7 -43 -7 -86 l0 -78 83 0 c46 0 93 6 107 13 51
26 51 110 0 133 -31 14 -173 28 -183 18z"/>
</g>
</svg>
